<svg width="184" height="46" viewBox="0 0 184 46" fill="none" xmlns="http://www.w3.org/2000/svg">
<rect width="184" height="46" rx="8" fill="#F6F6F6"/>
<path d="M64.6363 30.697C64.9292 30.9899 65.4041 30.9899 65.697 30.697C65.9899 30.4041 65.9899 29.9292 65.697 29.6363L64.6363 30.697ZM61.9167 21.8333C61.9167 24.6408 59.6408 26.9167 56.8333 26.9167V28.4167C60.4692 28.4167 63.4167 25.4692 63.4167 21.8333H61.9167ZM56.8333 26.9167C54.0259 26.9167 51.75 24.6408 51.75 21.8333H50.25C50.25 25.4692 53.1975 28.4167 56.8333 28.4167V26.9167ZM51.75 21.8333C51.75 19.0259 54.0259 16.75 56.8333 16.75V15.25C53.1975 15.25 50.25 18.1975 50.25 21.8333H51.75ZM56.8333 16.75C59.6408 16.75 61.9167 19.0259 61.9167 21.8333H63.4167C63.4167 18.1975 60.4692 15.25 56.8333 15.25V16.75ZM60.4697 26.5303L64.6363 30.697L65.697 29.6363L61.5303 25.4697L60.4697 26.5303Z" fill="#807D7E"/>
<path d="M80.9511 27.462L82.3191 26.526C82.7151 27.462 84.1551 28.524 86.0091 28.524C87.8091 28.524 88.5111 27.84 88.5111 26.706C88.5111 25.356 86.3691 25.014 85.3791 24.708C84.3171 24.402 81.3831 23.88 81.3831 21.432C81.3831 19.128 83.3631 18.084 85.8291 18.084C88.0251 18.084 89.7891 19.218 90.2391 20.478L88.8711 21.324C88.5471 20.55 87.2691 19.776 85.6491 19.776C84.1191 19.776 83.2911 20.352 83.2911 21.342C83.2911 22.62 85.2711 22.926 86.3511 23.232C87.3231 23.538 90.3831 24.186 90.3831 26.634C90.3831 28.974 88.6371 30.216 85.8291 30.216C83.2551 30.216 81.5271 28.938 80.9511 27.462ZM96.0084 21.576C98.4204 21.576 99.9864 23.394 99.9864 25.86V26.328H93.4704C93.6324 27.804 94.6764 28.758 96.1164 28.758C97.3044 28.758 98.0604 28.218 98.4564 27.642L99.5904 28.452C98.8704 29.496 97.6284 30.162 96.1164 30.162C93.5964 30.162 91.9044 28.326 91.9044 25.86C91.9044 23.394 93.5244 21.576 96.0084 21.576ZM96.0084 22.872C94.5864 22.872 93.6684 23.826 93.4704 25.266H98.4744C98.2764 23.88 97.3944 22.872 96.0084 22.872ZM108.466 21.72H110.086V30H108.466V28.722C107.854 29.604 106.9 30.144 105.622 30.144C103.282 30.144 101.608 28.326 101.608 25.86C101.608 23.358 103.282 21.594 105.622 21.594C106.9 21.594 107.854 22.134 108.466 22.998V21.72ZM105.838 28.614C107.422 28.614 108.466 27.444 108.466 25.86C108.466 24.258 107.422 23.124 105.838 23.124C104.236 23.124 103.192 24.258 103.192 25.86C103.192 27.444 104.236 28.614 105.838 28.614ZM113.869 23.25C114.517 22.116 115.633 21.612 116.785 21.594V23.124C115.669 23.142 113.869 23.628 113.869 25.752V30H112.249V21.72H113.869V23.25ZM123.994 24.15C123.598 23.592 122.896 23.124 121.834 23.124C120.25 23.124 119.17 24.258 119.17 25.86C119.17 27.444 120.25 28.614 121.834 28.614C122.896 28.614 123.58 28.164 123.994 27.606L125.164 28.47C124.444 29.514 123.256 30.162 121.798 30.162C119.314 30.162 117.586 28.344 117.586 25.86C117.586 23.358 119.314 21.576 121.798 21.576C123.256 21.576 124.444 22.224 125.164 23.25L123.994 24.15ZM131.05 21.594C132.652 21.594 134.326 22.512 134.326 24.906V30H132.706V25.14C132.706 23.61 131.626 22.98 130.582 22.98C129.556 22.98 128.494 23.61 128.494 25.14V30H126.874V18.3H128.494V22.728C129.124 21.918 130.096 21.594 131.05 21.594Z" fill="#807D7E"/>
</svg>
